<?xml version="1.0" encoding="utf-8"?>
<!-- Generator: Adobe Illustrator 22.1.0, SVG Export Plug-In . SVG Version: 6.00 Build 0)  -->
<svg version="1.1" id="Layer_1" xmlns="http://www.w3.org/2000/svg" xmlns:xlink="http://www.w3.org/1999/xlink" x="0px" y="0px"
	 viewBox="0 0 279 161" style="enable-background:new 0 0 279 161;" xml:space="preserve">
<style type="text/css">
	.st0{fill:#000F9F;}
	.st1{fill:#EA0029;}
	.st2{fill:#FEFEFE;}
</style>
<g>
	<rect id="base" x="88.3" y="0" class="st0" width="99.5" height="99.5"/>
	<polygon id="switch" class="st1" points="149.9,49.1 187.7,0 182.1,0 144.2,49.1 	"/>
	<path id="axa" class="st2" d="M164.3,71c1.7,4.9,5.3,17.5,6.7,18.5h-9.4c0,0,0-1.9-0.4-3.3c-0.4-1.4-3.8-12.4-3.8-12.4h-14.9
		l-2.3,3.3c0,0,2.8,8.8,3,9.2c0.3,0.8,1.6,3.1,1.6,3.1h-9c0,0-0.2-1.3-0.3-1.9c-0.1-0.5-0.9-2.9-0.9-2.9s-2,2.2-2.6,3.3
		c-0.6,1-0.8,1.6-0.8,1.6h-7c0,0-0.2-1.3-0.3-1.9c-0.1-0.5-0.9-3.1-0.9-3.1s-2,2.4-2.5,3.4c-0.6,1-0.8,1.6-0.8,1.6h-7
		c0,0,2-1.9,2.7-2.7c1.2-1.4,5.5-7,5.5-7l-1.7-6h-14.8c0,0-8.4,11.1-8.8,11.4c-0.3,0.3-2.8,3.9-2.8,4.2h-4.4v-2.8
		c0.1-0.1,0.1-0.1,0.2-0.2c0.1-0.1,6.4-7.9,12.1-15.5c5.2-6.7,10-13.2,10.4-13.8c1-1.5,2.5-4.7,2.5-4.7h7.6c0,0,0.2,3,0.5,3.7
		c0.2,0.6,4.9,15.9,5,16.1l2.6-3.3l-4.4-13.5c0,0-1-2.5-1.4-2.9h8.9c0,0-0.1,1.3,0.3,2.4c0.4,1.1,2.3,8,2.3,8s6.1-7.6,6.4-8.2
		c0.7-0.9,0.8-2.3,0.8-2.3h7.4c0,0-1.4,1-3.7,4c-0.8,1-8.7,11-8.7,11s0.7,2.3,1,3.5c0.1,0.3,0.2,0.6,0.2,0.6c0,0,0.2-0.2,0.5-0.6
		c2-2.6,11.2-14.7,11.8-15.7c0.5-0.8,1.1-1.8,1.5-2.8h7.3c0,0,0.2,2.2,0.4,2.8L164.3,71z M153.2,59.6c-1.1,2.3-7.3,9.9-7.3,9.9h9.9
		c0,0-1.9-5.9-2.3-7.3c-0.3-1.1-0.2-2.4-0.2-2.6C153.4,59.5,153.3,59.3,153.2,59.6z M115.1,59.6c-1.1,2.3-7.3,9.9-7.3,9.9h9.9
		c0,0-1.9-5.9-2.3-7.3c-0.3-1.1-0.2-2.4-0.2-2.6C115.2,59.5,115.2,59.3,115.1,59.6z M130,82.8l2.7-3.8c-0.3-0.3-1.8-4.9-1.8-4.9
		l-2.6,3.4L130,82.8z"/>
</g>
<g>
	<path class="st0" d="M16.2,125.6h7.6l8.8,27.9h-6.7l-3.7-14.1c-0.8-2.8-1.5-6.1-2.3-9h-0.2c-0.7,2.9-1.4,6.2-2.2,9l-3.7,14.1H7.4
		L16.2,125.6z M13.2,142h13.4v4.9H13.2V142z"/>
	<path class="st0" d="M40.2,139.2l-7.3-13.5h7l2.4,5.3c0.6,1.3,1.2,2.7,2,4.5h0.2c0.6-1.8,1.2-3.2,1.8-4.5l2.2-5.3h6.7l-7.3,13.8
		l7.7,14.1h-7l-2.8-5.7c-0.7-1.4-1.3-2.9-2.1-4.6h-0.2c-0.7,1.7-1.3,3.2-1.9,4.6l-2.6,5.7h-6.7L40.2,139.2z"/>
	<path class="st0" d="M64.5,125.6h7.6l8.8,27.9h-6.7l-3.7-14.1c-0.8-2.8-1.5-6.1-2.3-9h-0.2c-0.7,2.9-1.4,6.2-2.2,9l-3.7,14.1h-6.5
		L64.5,125.6z M61.5,142h13.4v4.9H61.5V142z"/>
	<path class="st0" d="M92.1,125.6h17.6v5.3H98.4v6.5h9.7v5.3h-9.7v10.9h-6.3V125.6z"/>
	<path class="st0" d="M114,146.9v-23.4h6.3v23.7c0,1.4,0.6,1.8,1.1,1.8c0.2,0,0.4,0,0.8-0.1l0.8,4.6c-0.7,0.3-1.7,0.5-3.2,0.5
		C115.5,154.1,114,151.2,114,146.9z"/>
	<path class="st0" d="M125,142.9c0-6.9,4.9-11.1,10-11.1c6.1,0,9.1,4.4,9.1,10.2c0,1.1-0.1,2.3-0.3,2.8h-12.7
		c0.6,3.1,2.7,4.5,5.5,4.5c1.6,0,3.1-0.5,4.6-1.4l2.1,3.8c-2.2,1.5-5,2.4-7.5,2.4C129.7,154.1,125,150,125,142.9z M138.7,140.6
		c0-2.3-1-4-3.5-4c-2,0-3.7,1.3-4.1,4H138.7z"/>
	<path class="st0" d="M152.1,142.5l-6.1-10.2h6.8l1.9,3.4c0.6,1.2,1.2,2.4,1.8,3.6h0.2c0.5-1.2,1-2.4,1.5-3.6l1.5-3.4h6.5l-6.1,10.9
		l6.5,10.3h-6.7l-2.1-3.5c-0.7-1.2-1.3-2.5-2-3.7h-0.2c-0.5,1.2-1.1,2.4-1.6,3.7l-1.7,3.5h-6.5L152.1,142.5z"/>
	<path class="st0" d="M169.3,125.9c0-1.9,1.5-3.3,3.6-3.3c2.1,0,3.6,1.4,3.6,3.3c0,1.9-1.5,3.3-3.6,3.3
		C170.8,129.2,169.3,127.8,169.3,125.9z M169.8,132.3h6.3v21.2h-6.3V132.3z"/>
	<path class="st1" d="M185.9,125.4h5.2c7.8,0,11.9,4.1,11.9,11c0,10.2-5.7,17.1-15.2,17.1h-7.5L185.9,125.4z M187.8,150.8
		c7.3,0,11.8-5.8,11.8-14.2c0-5.3-3-8.5-8.6-8.5h-2.3l-4.5,22.7H187.8z"/>
	<path class="st1" d="M209.6,132.7h2.7l-0.5,4h0.2c1.7-2.5,3.9-4.5,6.5-4.5c0.8,0,1.4,0.1,2,0.4l-1.1,2.9c-0.4-0.2-1.1-0.3-1.8-0.3
		c-2.1,0-4.4,1.8-6.2,5.2l-2.6,13.1h-3.3L209.6,132.7z"/>
	<path class="st1" d="M224.3,132.7h3.3l-4.2,20.8h-3.3L224.3,132.7z M225,126.5c0-1.4,1.1-2.5,2.5-2.5c1.1,0,2.1,0.7,2.1,2
		c0,1.4-1.1,2.4-2.5,2.4C226,128.4,225,127.7,225,126.5z"/>
	<path class="st1" d="M231.5,132.7h3.3l1.5,12c0.2,2,0.4,4.2,0.6,6.2h0.2c1-2.1,2-4.2,3.1-6.2l6.1-12h3.3l-11.1,20.8h-3.9
		L231.5,132.7z"/>
	<path class="st1" d="M260.7,132.2c4.7,0,6.5,3.2,6.5,7.5c0,1.7-0.5,3.3-0.8,4.1h-13.5c-0.8,5.4,2,7.7,5.6,7.7
		c1.6,0,3.4-0.8,4.7-1.8l1.3,2.2c-1.7,1.2-4,2.2-6.7,2.2c-4.9,0-8.2-3.1-8.2-8.7C249.6,137.5,255.3,132.2,260.7,132.2z M264.1,141.6
		c0.1-0.7,0.2-1.3,0.2-2.1c0-2.4-1-4.6-4-4.6c-3,0-6,2.7-7.1,6.8H264.1z"/>
</g>
</svg>
